<mxfile host="app.diagrams.net" modified="2024-06-29T00:47:04.884Z" agent="Mozilla/5.0 (Macintosh; Intel Mac OS X 10.15; rv:127.0) Gecko/20100101 Firefox/127.0" etag="hE5A-d_DpnQjmG_rtsh-" version="24.6.4" type="github">
  <diagram name="Page-1" id="u_VOZr-g9mU3h9KhRB-n">
    <mxGraphModel dx="1000" dy="658" grid="1" gridSize="10" guides="1" tooltips="1" connect="1" arrows="1" fold="1" page="1" pageScale="1" pageWidth="850" pageHeight="1100" math="0" shadow="0">
      <root>
        <mxCell id="0" />
        <mxCell id="1" parent="0" />
        <mxCell id="QQhZ-_njBC5ckvbVha_C-101" value="" style="group;fontSize=13;" vertex="1" connectable="0" parent="1">
          <mxGeometry x="9" y="350" width="841" height="290" as="geometry" />
        </mxCell>
        <mxCell id="2" value="Spacetime " style="shape=table;startSize=22;container=1;collapsible=0;childLayout=tableLayout;fixedRows=1;rowLines=1;fontStyle=1;align=center;resizeLast=1;swimlaneLine=1;flipH=0;flipV=0;fontSize=13;" parent="QQhZ-_njBC5ckvbVha_C-101" vertex="1">
          <mxGeometry x="15.386621417797889" y="5" width="202.2839668174963" height="275" as="geometry" />
        </mxCell>
        <mxCell id="3" style="shape=tableRow;horizontal=0;startSize=0;swimlaneHead=0;swimlaneBody=0;fillColor=none;collapsible=0;dropTarget=0;points=[[0,0.5],[1,0.5]];portConstraint=eastwest;top=0;left=0;right=0;bottom=0;fontSize=13;" parent="2" vertex="1">
          <mxGeometry y="22" width="202.2839668174963" height="22" as="geometry" />
        </mxCell>
        <mxCell id="4" value="File name" style="shape=partialRectangle;connectable=0;fillColor=none;top=0;left=0;bottom=0;right=0;align=left;spacingLeft=2;overflow=hidden;fontSize=13;" parent="3" vertex="1">
          <mxGeometry width="80" height="22" as="geometry">
            <mxRectangle width="80" height="22" as="alternateBounds" />
          </mxGeometry>
        </mxCell>
        <mxCell id="5" value="ST&lt;params&gt;.hdf5" style="shape=partialRectangle;connectable=0;fillColor=none;top=0;left=0;bottom=0;right=0;align=left;spacingLeft=2;overflow=hidden;fontSize=13;" parent="3" vertex="1">
          <mxGeometry x="80" width="122.28396681749629" height="22" as="geometry">
            <mxRectangle width="122.28396681749629" height="22" as="alternateBounds" />
          </mxGeometry>
        </mxCell>
        <mxCell id="6" style="shape=tableRow;horizontal=0;startSize=0;swimlaneHead=0;swimlaneBody=0;fillColor=none;collapsible=0;dropTarget=0;points=[[0,0.5],[1,0.5]];portConstraint=eastwest;top=0;left=0;right=0;bottom=0;fontSize=13;" parent="2" vertex="1">
          <mxGeometry y="44" width="202.2839668174963" height="91" as="geometry" />
        </mxCell>
        <mxCell id="7" value="params" style="shape=partialRectangle;connectable=0;fillColor=none;top=0;left=0;bottom=0;right=0;align=left;spacingLeft=2;overflow=hidden;fontSize=13;" parent="6" vertex="1">
          <mxGeometry width="80" height="91" as="geometry">
            <mxRectangle width="80" height="91" as="alternateBounds" />
          </mxGeometry>
        </mxCell>
        <mxCell id="8" value="spin&#xa;model&#xa;strength&#xa;theta&#xa;phi" style="shape=partialRectangle;connectable=0;fillColor=none;top=0;left=0;bottom=0;right=0;align=left;spacingLeft=2;overflow=hidden;fontSize=13;" parent="6" vertex="1">
          <mxGeometry x="80" width="122.28396681749629" height="91" as="geometry">
            <mxRectangle width="122.28396681749629" height="91" as="alternateBounds" />
          </mxGeometry>
        </mxCell>
        <mxCell id="QQhZ-_njBC5ckvbVha_C-76" style="shape=tableRow;horizontal=0;startSize=0;swimlaneHead=0;swimlaneBody=0;fillColor=none;collapsible=0;dropTarget=0;points=[[0,0.5],[1,0.5]];portConstraint=eastwest;top=0;left=0;right=0;bottom=0;fontSize=13;" vertex="1" parent="2">
          <mxGeometry y="135" width="202.2839668174963" height="60" as="geometry" />
        </mxCell>
        <mxCell id="QQhZ-_njBC5ckvbVha_C-77" value="Attributes" style="shape=partialRectangle;connectable=0;fillColor=none;top=0;left=0;bottom=0;right=0;align=left;spacingLeft=2;overflow=hidden;fontSize=13;" vertex="1" parent="QQhZ-_njBC5ckvbVha_C-76">
          <mxGeometry width="80" height="60" as="geometry">
            <mxRectangle width="80" height="60" as="alternateBounds" />
          </mxGeometry>
        </mxCell>
        <mxCell id="QQhZ-_njBC5ckvbVha_C-78" value="M=1&#xa;a=spin&#xa;Nsteps:int" style="shape=partialRectangle;connectable=0;fillColor=none;top=0;left=0;bottom=0;right=0;align=left;spacingLeft=2;overflow=hidden;fontSize=13;" vertex="1" parent="QQhZ-_njBC5ckvbVha_C-76">
          <mxGeometry x="80" width="122.28396681749629" height="60" as="geometry">
            <mxRectangle width="122.28396681749629" height="60" as="alternateBounds" />
          </mxGeometry>
        </mxCell>
        <mxCell id="QQhZ-_njBC5ckvbVha_C-79" style="shape=tableRow;horizontal=0;startSize=0;swimlaneHead=0;swimlaneBody=0;fillColor=none;collapsible=0;dropTarget=0;points=[[0,0.5],[1,0.5]];portConstraint=eastwest;top=0;left=0;right=0;bottom=0;fontSize=13;" vertex="1" parent="2">
          <mxGeometry y="195" width="202.2839668174963" height="80" as="geometry" />
        </mxCell>
        <mxCell id="QQhZ-_njBC5ckvbVha_C-80" value="Net &#xa;Perturbation&#xa;Attributes" style="shape=partialRectangle;connectable=0;fillColor=none;top=0;left=0;bottom=0;right=0;align=left;spacingLeft=2;overflow=hidden;fontSize=13;" vertex="1" parent="QQhZ-_njBC5ckvbVha_C-79">
          <mxGeometry width="80" height="80" as="geometry">
            <mxRectangle width="80" height="80" as="alternateBounds" />
          </mxGeometry>
        </mxCell>
        <mxCell id="QQhZ-_njBC5ckvbVha_C-81" value="Model=model&#xa;name:string&#xa;z_array:ndarray&#xa;Eij=None&#xa;Epsilon=strength" style="shape=partialRectangle;connectable=0;fillColor=none;top=0;left=0;bottom=0;right=0;align=left;spacingLeft=2;overflow=hidden;fontSize=13;" vertex="1" parent="QQhZ-_njBC5ckvbVha_C-79">
          <mxGeometry x="80" width="122.28396681749629" height="80" as="geometry">
            <mxRectangle width="122.28396681749629" height="80" as="alternateBounds" />
          </mxGeometry>
        </mxCell>
        <mxCell id="12" value="Geodesic Set" style="shape=table;startSize=25;container=1;collapsible=0;childLayout=tableLayout;fixedRows=1;rowLines=1;fontStyle=1;align=center;resizeLast=1;fontSize=13;" parent="QQhZ-_njBC5ckvbVha_C-101" vertex="1">
          <mxGeometry x="280.33003529411764" y="-1.5" width="253.95231764705883" height="288" as="geometry" />
        </mxCell>
        <mxCell id="13" style="shape=tableRow;horizontal=0;startSize=0;swimlaneHead=0;swimlaneBody=0;fillColor=none;collapsible=0;dropTarget=0;points=[[0,0.5],[1,0.5]];portConstraint=eastwest;top=0;left=0;right=0;bottom=0;fontSize=13;" parent="12" vertex="1">
          <mxGeometry y="25" width="253.95231764705883" height="43" as="geometry" />
        </mxCell>
        <mxCell id="14" value="Name" style="shape=partialRectangle;connectable=0;fillColor=none;top=0;left=0;bottom=0;right=0;align=left;spacingLeft=2;overflow=hidden;fontSize=13;" parent="13" vertex="1">
          <mxGeometry width="70" height="43" as="geometry">
            <mxRectangle width="70" height="43" as="alternateBounds" />
          </mxGeometry>
        </mxCell>
        <mxCell id="15" value="Set_&lt;a,p,e,x&gt;" style="shape=partialRectangle;connectable=0;fillColor=none;top=0;left=0;bottom=0;right=0;align=left;spacingLeft=2;overflow=hidden;fontSize=13;" parent="13" vertex="1">
          <mxGeometry x="70" width="183.95231764705883" height="43" as="geometry">
            <mxRectangle width="183.95231764705883" height="43" as="alternateBounds" />
          </mxGeometry>
        </mxCell>
        <mxCell id="16" style="shape=tableRow;horizontal=0;startSize=0;swimlaneHead=0;swimlaneBody=0;fillColor=none;collapsible=0;dropTarget=0;points=[[0,0.5],[1,0.5]];portConstraint=eastwest;top=0;left=0;right=0;bottom=0;fontSize=13;" parent="12" vertex="1">
          <mxGeometry y="68" width="253.95231764705883" height="180" as="geometry" />
        </mxCell>
        <mxCell id="17" value="Attributes" style="shape=partialRectangle;connectable=0;fillColor=none;top=0;left=0;bottom=0;right=0;align=left;spacingLeft=2;overflow=hidden;fontSize=13;" parent="16" vertex="1">
          <mxGeometry width="70" height="180" as="geometry">
            <mxRectangle width="70" height="180" as="alternateBounds" />
          </mxGeometry>
        </mxCell>
        <mxCell id="18" value="(a,p,e,x)&#xa;array of initial xi&#39;s&#xa;array of initial chi&#39;s&#xa;array of initial phi&#39;s&#xa;Radial Roots: &#xa;    r1, r2, r3, r4&#xa;Polar Roots: &#xa;    zm, zp&#xa;Constants of Motion:&#xa;    E, Lz, Q&#xa;Initial Frequencies of Motion" style="shape=partialRectangle;connectable=0;fillColor=none;top=0;left=0;bottom=0;right=0;align=left;spacingLeft=2;overflow=hidden;fontSize=13;" parent="16" vertex="1">
          <mxGeometry x="70" width="183.95231764705883" height="180" as="geometry">
            <mxRectangle width="183.95231764705883" height="180" as="alternateBounds" />
          </mxGeometry>
        </mxCell>
        <mxCell id="QQhZ-_njBC5ckvbVha_C-82" style="shape=tableRow;horizontal=0;startSize=0;swimlaneHead=0;swimlaneBody=0;fillColor=none;collapsible=0;dropTarget=0;points=[[0,0.5],[1,0.5]];portConstraint=eastwest;top=0;left=0;right=0;bottom=0;fontSize=13;" vertex="1" parent="12">
          <mxGeometry y="248" width="253.95231764705883" height="40" as="geometry" />
        </mxCell>
        <mxCell id="QQhZ-_njBC5ckvbVha_C-83" value="Data Sets" style="shape=partialRectangle;connectable=0;fillColor=none;top=0;left=0;bottom=0;right=0;align=left;spacingLeft=2;overflow=hidden;fontSize=13;" vertex="1" parent="QQhZ-_njBC5ckvbVha_C-82">
          <mxGeometry width="70" height="40" as="geometry">
            <mxRectangle width="70" height="40" as="alternateBounds" />
          </mxGeometry>
        </mxCell>
        <mxCell id="QQhZ-_njBC5ckvbVha_C-84" value="Proper Time array" style="shape=partialRectangle;connectable=0;fillColor=none;top=0;left=0;bottom=0;right=0;align=left;spacingLeft=2;overflow=hidden;fontSize=13;" vertex="1" parent="QQhZ-_njBC5ckvbVha_C-82">
          <mxGeometry x="70" width="183.95231764705883" height="40" as="geometry">
            <mxRectangle width="183.95231764705883" height="40" as="alternateBounds" />
          </mxGeometry>
        </mxCell>
        <mxCell id="42" value="" style="startArrow=ERmandOne;startSize=10;;endArrow=ERmany;endSize=10;;fontSize=13;" parent="QQhZ-_njBC5ckvbVha_C-101" source="2" target="12" edge="1">
          <mxGeometry x="-0.0443" relative="1" as="geometry">
            <mxPoint as="offset" />
          </mxGeometry>
        </mxCell>
        <mxCell id="22" value="Trajectory/Geodesic" style="shape=table;startSize=30;container=1;collapsible=0;childLayout=tableLayout;fixedRows=1;rowLines=1;fontStyle=1;align=center;resizeLast=1;fontSize=13;" parent="QQhZ-_njBC5ckvbVha_C-101" vertex="1">
          <mxGeometry x="593.6470588235294" y="42.5" width="217.6705882352941" height="200" as="geometry" />
        </mxCell>
        <mxCell id="QQhZ-_njBC5ckvbVha_C-98" style="shape=tableRow;horizontal=0;startSize=0;swimlaneHead=0;swimlaneBody=0;fillColor=none;collapsible=0;dropTarget=0;points=[[0,0.5],[1,0.5]];portConstraint=eastwest;top=0;left=0;right=0;bottom=0;fontSize=13;" vertex="1" parent="22">
          <mxGeometry y="30" width="217.6705882352941" height="30" as="geometry" />
        </mxCell>
        <mxCell id="QQhZ-_njBC5ckvbVha_C-99" value="Name" style="shape=partialRectangle;connectable=0;fillColor=none;top=0;left=0;bottom=0;right=0;align=left;spacingLeft=2;overflow=hidden;fontSize=13;" vertex="1" parent="QQhZ-_njBC5ckvbVha_C-98">
          <mxGeometry width="70" height="30" as="geometry">
            <mxRectangle width="70" height="30" as="alternateBounds" />
          </mxGeometry>
        </mxCell>
        <mxCell id="QQhZ-_njBC5ckvbVha_C-100" value="&lt; xi_0,chi_0,phi_0 &gt;" style="shape=partialRectangle;connectable=0;fillColor=none;top=0;left=0;bottom=0;right=0;align=left;spacingLeft=2;overflow=hidden;fontSize=13;" vertex="1" parent="QQhZ-_njBC5ckvbVha_C-98">
          <mxGeometry x="70" width="147.6705882352941" height="30" as="geometry">
            <mxRectangle width="147.6705882352941" height="30" as="alternateBounds" />
          </mxGeometry>
        </mxCell>
        <mxCell id="29" style="shape=tableRow;horizontal=0;startSize=0;swimlaneHead=0;swimlaneBody=0;fillColor=none;collapsible=0;dropTarget=0;points=[[0,0.5],[1,0.5]];portConstraint=eastwest;top=0;left=0;right=0;bottom=0;fontSize=13;" parent="22" vertex="1">
          <mxGeometry y="60" width="217.6705882352941" height="140" as="geometry" />
        </mxCell>
        <mxCell id="30" value="Data Sets&#xa;calculated&#xa;for choice&#xa;of ICs&#xa;" style="shape=partialRectangle;connectable=0;fillColor=none;top=0;left=0;bottom=0;right=0;align=left;spacingLeft=2;overflow=hidden;fontSize=13;" parent="29" vertex="1">
          <mxGeometry width="70" height="140" as="geometry">
            <mxRectangle width="70" height="140" as="alternateBounds" />
          </mxGeometry>
        </mxCell>
        <mxCell id="31" value="Trajectory Data arrays:&#xa;    position&#xa;    velocity&#xa;    acceleration&#xa;    jerk&#xa;Strain arrays:&#xa;    h_plus&#xa;    h_cross" style="shape=partialRectangle;connectable=0;fillColor=none;top=0;left=0;bottom=0;right=0;align=left;spacingLeft=2;overflow=hidden;fontSize=13;" parent="29" vertex="1">
          <mxGeometry x="70" width="147.6705882352941" height="140" as="geometry">
            <mxRectangle width="147.6705882352941" height="140" as="alternateBounds" />
          </mxGeometry>
        </mxCell>
        <mxCell id="QQhZ-_njBC5ckvbVha_C-144" value="" style="startArrow=ERmandOne;startSize=10;;endArrow=ERmany;endSize=10;;fontSize=13;" edge="1" parent="QQhZ-_njBC5ckvbVha_C-101" source="12" target="22">
          <mxGeometry x="-0.0443" relative="1" as="geometry">
            <mxPoint x="544.1764705882352" y="150" as="sourcePoint" />
            <mxPoint x="606.5094117647059" y="150" as="targetPoint" />
            <mxPoint as="offset" />
          </mxGeometry>
        </mxCell>
        <mxCell id="QQhZ-_njBC5ckvbVha_C-128" value="SpacetimeDatabase" style="shape=table;startSize=25;container=1;collapsible=0;childLayout=tableLayout;fixedRows=1;rowLines=1;fontStyle=1;align=center;resizeLast=1;swimlaneLine=1;flipH=0;flipV=0;fontSize=13;" vertex="1" parent="1">
          <mxGeometry x="330" y="130" width="210" height="160" as="geometry" />
        </mxCell>
        <mxCell id="QQhZ-_njBC5ckvbVha_C-129" style="shape=tableRow;horizontal=0;startSize=0;swimlaneHead=0;swimlaneBody=0;fillColor=none;collapsible=0;dropTarget=0;points=[[0,0.5],[1,0.5]];portConstraint=eastwest;top=0;left=0;right=0;bottom=0;fontSize=13;" vertex="1" parent="QQhZ-_njBC5ckvbVha_C-128">
          <mxGeometry y="25" width="210" height="22" as="geometry" />
        </mxCell>
        <mxCell id="QQhZ-_njBC5ckvbVha_C-130" value="File name" style="shape=partialRectangle;connectable=0;fillColor=none;top=0;left=0;bottom=0;right=0;align=left;spacingLeft=2;overflow=hidden;fontSize=13;" vertex="1" parent="QQhZ-_njBC5ckvbVha_C-129">
          <mxGeometry width="80" height="22" as="geometry">
            <mxRectangle width="80" height="22" as="alternateBounds" />
          </mxGeometry>
        </mxCell>
        <mxCell id="QQhZ-_njBC5ckvbVha_C-131" value="ST_IDs.csv" style="shape=partialRectangle;connectable=0;fillColor=none;top=0;left=0;bottom=0;right=0;align=left;spacingLeft=2;overflow=hidden;fontSize=13;" vertex="1" parent="QQhZ-_njBC5ckvbVha_C-129">
          <mxGeometry x="80" width="130" height="22" as="geometry">
            <mxRectangle width="130" height="22" as="alternateBounds" />
          </mxGeometry>
        </mxCell>
        <mxCell id="QQhZ-_njBC5ckvbVha_C-132" style="shape=tableRow;horizontal=0;startSize=0;swimlaneHead=0;swimlaneBody=0;fillColor=none;collapsible=0;dropTarget=0;points=[[0,0.5],[1,0.5]];portConstraint=eastwest;top=0;left=0;right=0;bottom=0;fontSize=13;" vertex="1" parent="QQhZ-_njBC5ckvbVha_C-128">
          <mxGeometry y="47" width="210" height="113" as="geometry" />
        </mxCell>
        <mxCell id="QQhZ-_njBC5ckvbVha_C-133" value="Key Data" style="shape=partialRectangle;connectable=0;fillColor=none;top=0;left=0;bottom=0;right=0;align=left;spacingLeft=2;overflow=hidden;fontSize=13;" vertex="1" parent="QQhZ-_njBC5ckvbVha_C-132">
          <mxGeometry width="80" height="113" as="geometry">
            <mxRectangle width="80" height="113" as="alternateBounds" />
          </mxGeometry>
        </mxCell>
        <mxCell id="QQhZ-_njBC5ckvbVha_C-134" value="Column Labels:&#xa;    spin&#xa;    model&#xa;    strength&#xa;    polar angle&#xa;    azimuthal angle" style="shape=partialRectangle;connectable=0;fillColor=none;top=0;left=0;bottom=0;right=0;align=left;spacingLeft=2;overflow=hidden;fontSize=13;" vertex="1" parent="QQhZ-_njBC5ckvbVha_C-132">
          <mxGeometry x="80" width="130" height="113" as="geometry">
            <mxRectangle width="130" height="113" as="alternateBounds" />
          </mxGeometry>
        </mxCell>
      </root>
    </mxGraphModel>
  </diagram>
</mxfile>
